HIERARCHY
ROOT hip
{
  OFFSET 0.0 0.0 0.0
  CHANNELS 6 Xposition Yposition Zposition Zrotation Yrotation Xrotation
  JOINT torso
  {
    OFFSET 0.0 0.0 0.0
    CHANNELS 3 Zrotation Xrotation Yrotation
    JOINT neck
    {
      OFFSET -31.42098999999993 328.8025209999999 74.3554680000002
      CHANNELS 3 Zrotation Xrotation Yrotation
      JOINT head
      {
        OFFSET 3.3519900000001144 303.81732099999994 206.53942900000015
        CHANNELS 3 Zrotation Xrotation Yrotation
        End Site
        {
          OFFSET 0.0 0.0 0.0
        }
      }
    }
    JOINT left_collar
    {
      OFFSET -31.42098999999993 328.8025209999999 74.3554680000002
      CHANNELS 3 Zrotation Xrotation Yrotation
      JOINT left_upper_arm
      {
        OFFSET -124.490479 -8.162841999999841 8.226441000000023
        CHANNELS 3 Zrotation Xrotation Yrotation
        JOINT left_forearm
        {
          OFFSET -253.595764 -1.5758060000000569 105.0729980000001
          CHANNELS 3 Zrotation Xrotation Yrotation
          JOINT left_hand
          {
            OFFSET -269.48803699999996 0.1478270000000066 -55.346191999999974
            CHANNELS 3 Zrotation Xrotation Yrotation
            End Site
            {
              OFFSET 0.0 0.0 0.0
            }
          }
        }
      }
    }
    JOINT right_collar
    {
      OFFSET -31.42098999999993 328.8025209999999 74.3554680000002
      CHANNELS 3 Zrotation Xrotation Yrotation
      JOINT right_upper_arm
      {
        OFFSET 162.02484099999998 0.46441600000002836 2.2303470000001653
        CHANNELS 3 Zrotation Xrotation Yrotation
        JOINT right_forearm
        {
          OFFSET 240.01246700000004 -25.835875999999985 121.34179699999959
          CHANNELS 3 Zrotation Xrotation Yrotation
          JOINT right_hand
          {
            OFFSET 252.48539699999992 18.910399999999868 -67.53466800000001
            CHANNELS 3 Zrotation Xrotation Yrotation
            End Site
            {
              OFFSET 0.0 0.0 0.0
            }
          }
        }
      }
    }
  }
}
MOTION
Frames: 19
Frame Time: 0.01
-332.17835277777294 212.5841519791347 1448.108231976494 -1.1783079661377476 -0.2727800944508547 0.5493752143524693 1.605700926933377 -1.162079594326138 -0.49000618056441264 -2.8632976790305986 -6.072670378756102 2.090831178021782 0.0 0.0 0.0 5.164686506963195 -0.3572451400642111 6.309720756010907 39.700935254238246 8.316159723481187 21.946334193670378 44.70377034434254 -3.8586602546984583 -13.86067740832656 0.0 0.0 0.0 1.466567742192101 -0.09607509104469629 4.837562323620437 -34.02043643322511 3.644289066390672 -32.17209492263798 -58.54192398700013 -7.9057666039277485 17.574497435664863 0.0 0.0 0.0
-332.07003341198373 212.58157414708498 1448.048788046156 -1.167516224507545 -0.2755053453389609 0.5457255805563089 1.598047917365368 -1.151894396484283 -0.4870915999339791 -2.8663368386094272 -6.090683320506982 2.093394706379272 0.0 0.0 0.0 5.130406476612841 -0.35606224131788605 6.29566394201838 39.716909877962095 8.311223577461272 21.968975512240977 44.716198294570376 -3.8632507905678217 -13.85243455157682 0.0 0.0 0.0 1.4805054134355842 -0.09664867282780311 4.824449479533679 -34.02156093625645 3.6477916182893675 -32.16429415874948 -58.55810491398962 -7.915363099589555 17.558703393481338 0.0 0.0 0.0
-331.9602410572056 212.57903465684535 1447.9883237628742 -1.1571769369178162 -0.27804752269541794 0.5417813671486579 1.590707844687107 -1.1418223266073524 -0.48426452278568904 -2.8693468154717467 -6.1087015843842325 2.0959380961218645 0.0 0.0 0.0 5.096048839801745 -0.35487463343895365 6.281479547523686 39.73303348514716 8.306199628168875 21.991920699948995 44.72859744632707 -3.8678572165481677 -13.844151971688845 0.0 0.0 0.0 1.4943207598622865 -0.09721609618030762 4.8115788522073295 -34.02258304918871 3.6512692984581947 -32.156500456703434 -58.574103833981574 -7.924916817893162 17.542961780461056 0.0 0.0 0.0
-331.8486953193467 212.57642532325397 1447.9262860799727 -1.1474485682829714 -0.2804212017093082 0.5375361931529609 1.583751359833576 -1.1319389436166292 -0.4815497249758598 -2.8722900247895855 -6.126555260739142 2.0984308348256087 0.0 0.0 0.0 5.061888327714623 -0.35368880201638453 6.2672532021112755 39.749247929094565 8.30113529762734 22.015009577182695 44.74082387726766 -3.8724464434273522 -13.835876416537246 0.0 0.0 0.0 1.507875078353 -0.09777308994916988 4.799157439020846 -34.023469415026355 3.654659004970102 -32.148847467265284 -58.589737226357876 -7.934335540085952 17.527416099617174 0.0 0.0 0.0
-331.7350891113642 212.57362800785342 1447.8620800442698 -1.1384803291109558 -0.2826465567845056 0.5329957143671131 1.5772408727295608 -1.1223187896680902 -0.4789698886819053 -2.8751320600540535 -6.144074467423008 2.1008446442376414 0.0 0.0 0.0 5.028184032829435 -0.352510319483135 6.253062785600487 39.76550999642342 8.296077772314884 22.03809193732444 44.75273580085766 -3.8769858478809307 -13.827653814252196 0.0 0.0 0.0 1.5210372575245117 -0.09831582656125068 4.787384063760586 -34.02419308792546 3.6578977547451617 -32.14147183534738 -58.60482717105688 -7.943528677414022 17.51220747946219 0.0 0.0 0.0
-331.61910832289743 212.57051649223058 1447.7950879774191 -1.1304080116123096 -0.2847493320401457 0.5281798215434963 1.5712286282835797 -1.113034454282881 -0.4765450544472908 -2.8778426535079826 -6.161091892951528 2.1031542209867227 0.0 0.0 0.0 4.995174641761638 -0.35134379729596027 6.238977277647426 39.78179172198983 8.291073201253122 22.061029784553142 44.764196832515616 -3.881443570275751 -13.819529318671261 0.0 0.0 0.0 1.533686812827168 -0.09884097791367233 4.776443745286666 -34.02473488353391 3.6609243738355564 -32.13450986924116 -58.61920571252872 -7.952408965424023 17.497472352225127 0.0 0.0 0.0
-331.50045151246945 212.56695821443697 1447.7246888255386 -1.1233500851140632 -0.28676090679002736 0.5231245986096273 1.5657549889137155 -1.1041555073197558 -0.47429210925935705 -2.880396470928316 -6.177445292048692 2.1053378597304526 0.0 0.0 0.0 4.963074579251035 -0.3501928912623858 6.22505611634661 39.798079650050404 8.286166007581512 22.08369863251354 44.77507937080985 -3.885788765682242 -13.811547502154434 0.0 0.0 0.0 1.5457166658479045 -0.09934575984388892 4.766502746663858 -34.02508460367534 3.6636810001749067 -32.12809459709186 -58.632718888377866 -7.960894095111141 17.483340196686925 0.0 0.0 0.0
-331.37884870843203 212.56281578825147 1447.6502768817868 -1.1174041924693312 -0.28871846181926414 0.5178839350505923 1.5608469782760266 -1.0957473155223447 -0.4722243246221689 -2.8827736987712185 -6.1929798747354425 2.1073779273719455 0.0 0.0 0.0 4.932071277859654 -0.349060359738013 6.211349114713388 39.81437294085831 8.281398337739933 22.10598774843723 44.78526800384512 -3.8899917938810558 -13.803752708572093 0.0 0.0 0.0 1.5570355509944527 -0.09982796414189288 4.7577044664750625 -34.02524208297853 3.666114364202522 -32.12235326424974 -58.645230247880534 -7.9689082445906685 17.46993136900318 0.0 0.0 0.0
-331.2540784458755 212.55794824250935 1447.5712791216556 -1.1126441850131363 -0.29066523561143576 0.5125306870404399 1.5565171285632846 -1.0878697787452056 -0.4703509579110108 -2.884960383872538 -6.207550522390079 2.1092611583000433 0.0 0.0 0.0 4.902323786939126 -0.3479481723742262 6.197896966914628 39.83068025450382 8.276809665730166 22.127799264447027 44.79466282116877 -3.8940243295834476 -13.796189583050444 0.0 0.0 0.0 1.5675699179329303 -0.10028597534316201 4.750166256918489 -34.02521798673904 3.6681768500723604 -32.117405226110286 -58.65662369751611 -7.976383476447522 17.457355043724203 0.0 0.0 0.0
-331.1259822500615 212.55221193694052 1447.4871704582736 -1.109117827881648 -0.29265084146897313 0.5071572883262955 1.552762667852508 -1.080576038802751 -0.4686769306855455 -2.886948493460273 -6.221023770797268 2.1109787461006095 0.0 0.0 0.0 4.873962869394874 -0.346857665683765 6.184732355735727 39.847015419435856 8.272436560673404 22.149046146942624 44.8031825045145 -3.8978593784262827 -13.788903782619325 0.0 0.0 0.0 1.577265218238923 -0.10071876967840217 4.743977193352373 -34.0250342837324 3.6698273650526456 -32.11336012855406 -58.66680555583648 -7.983260969879836 17.44570729054198 0.0 0.0 0.0
-330.9944759087968 212.5454611316455 1447.3974863292633 -1.1068452995862468 -0.2947315972466312 0.5018757243695913 1.5495650860625991 -1.0739112270204143 -0.4672025995571626 -2.8887356766512795 -6.2332795178300975 2.1125262171134573 0.0 0.0 0.0 4.847092613307966 -0.34578974123406386 6.171881652520205 39.86339200347433 8.268312615511398 22.16964910710953 44.810767085039934 -3.9014711968864377 -13.781942844609935 0.0 0.0 0.0 1.5860865156259203 -0.10112589546148378 4.739196784233534 -34.0247243249878 3.6710320536263756 -32.11031625075363 -58.67570577463501 -7.989492060762628 17.4350693243032 0.0 0.0 0.0
-330.85955705618363 212.53754820899388 1447.301832169243 -1.1058185968266243 -0.2969707996984258 0.49681680176733506 1.5468901250866443 -1.067911327799333 -0.46592363812958154 -2.8903247270221426 -6.244212435688137 2.1139030848222724 0.0 0.0 0.0 4.821793441340407 -0.344745102125945 6.1593671784427375 39.87981702341181 8.264468523175612 22.1895326346748 44.81738027941796 -3.904835130043538 -13.775357157171793 0.0 0.0 0.0 1.59401841937012 -0.10150743669678451 4.735854595401304 -34.02433247143892 3.6717648889325827 -32.1083589009495 -58.68327836964968 -7.995039063995165 17.42550598754825 0.0 0.0 0.0
-330.72130880866837 212.52832356930026 1447.1998894972935 -1.1060019343907983 -0.2994388567380615 0.49212866910865233 1.5446882442898342 -1.0626022446278915 -0.4648310509527351 -2.891722768295886 -6.25373309021849 2.1151123005740167 0.0 0.0 0.0 4.798126268562199 -0.34372452243326507 6.1472099652674395 39.8962841286623 8.260932272496685 22.208620430668585 44.823011342311275 -3.9079273947056734 -13.769200949319472 0.0 0.0 0.0 1.6010643917041456 -0.10186396372531374 4.733950760025262 -34.02391322583134 3.6720081631162245 -32.10755878934385 -58.68950118024031 -7.999875851775012 17.4170645484534 0.0 0.0 0.0
-330.579899431951 212.517635245417 1447.0914185400334 -1.1073331991170579 -0.30221317649967006 0.48797457429264746 1.5428956103217386 -1.0579991587336461 -0.4639113404641246 -2.8929402099802757 -6.261768791874631 2.116159534300349 0.0 0.0 0.0 4.7761374580499965 -0.3427291417807882 6.13543291109548 39.91276666033926 8.257729419039935 22.226830595973816 44.82767639497554 -3.910724844308238 -13.763533201635365 0.0 0.0 0.0 1.6072455172108895 -0.10219647601395085 4.733457346821285 -34.02352984192401 3.6717528848059056 -32.10797034412519 -58.69437512513583 -8.003988163745811 17.409773906806844 0.0 0.0 0.0
-330.4355782515369 212.50532830544998 1446.976257494221 -1.1097264773878257 -0.3053777067273629 0.48452987556219135 1.5414356470181452 -1.0541062650567532 -0.4631468443869655 -2.8939895435429075 -6.268264223182547 2.117052336317259 0.0 0.0 0.0 4.7558641588513675 -0.341760773839734 6.124064179084126 39.92921101740223 8.254883369364384 22.244070990716104 44.831419208825594 -3.9132047567395625 -13.75841837173184 0.0 0.0 0.0 1.6125988488118905 -0.10250634287879878 4.734320557545421 -34.0232524138861 3.670999080156639 -32.10962998123452 -58.69792312861244 -8.007373634965573 17.403644283242528 0.0 0.0 0.0
-330.2886682345231 212.49124413334374 1446.85431868734 -1.1130756298134037 -0.3090220259650501 0.481978357208531 1.5402211575205742 -1.0509169538272627 -0.4625162539268013 -2.8948840678051027 -6.27318190277719 2.1177992445506617 0.0 0.0 0.0 4.737339582966743 -0.3408222148706767 6.113140650821302 39.945530760290566 8.252415607502398 22.260235200511918 44.834311437361094 -3.9153446887465946 -13.753926825853183 0.0 0.0 0.0 1.6171754639492175 -0.10279524823692644 4.736463718313789 -34.02315549175766 3.6697559846245653 -32.11255438394723 -58.70018885869963 -8.010041544265862 17.398667424556177 0.0 0.0 0.0
-330.13955585776733 212.47521968834104 1446.725582011961 -1.1172588360249576 -0.31323991024780606 0.48050793358587723 1.5391569980437616 -1.048414480897768 -0.4619953128996686 -2.8956366416422865 -6.276502552298984 2.1184089084186293 0.0 0.0 0.0 4.720597786353737 -0.3399175380594422 6.102711235901832 39.96160185566912 8.250345795284058 22.275199518543527 44.83645229614399 -3.9171224420944717 -13.750134865649514 0.0 0.0 0.0 1.621038376261728 -0.10306514552670053 4.739791021585016 -34.023315316454116 3.668042103874136 -32.116738894979804 -58.701235362420135 -8.012012302332119 17.394817308495742 0.0 0.0 0.0
-329.98867902995374 212.4570868428859 1446.590086093073 -1.122143977369404 -0.31812733263493126 0.4803058540187202 1.5381432420253418 -1.0465731406493286 -0.4615576853417235 -2.8962585628630295 -6.278225428299582 2.118889301101469 0.0 0.0 0.0 4.705677562866202 -0.33905236174325815 6.092839860333829 39.97725941800886 8.24869169440816 22.288821277992998 44.83796768538037 -3.918516186654472 -13.747124237792319 0.0 0.0 0.0 1.6242604512859693 -0.10331822875740997 4.744191970693253 -34.02380680596294 3.6658851129541445 -32.122156166555364 -58.70114362818809 -8.0133167097819 17.392051294433323 0.0 0.0 0.0
-329.8365139378706 212.43667188751914 1446.447917705437 -1.1275946682876377 -0.3237798933279903 0.4815535446942528 1.5370787276845534 -1.0453599258148314 -0.4611759653059974 -2.896758666315189 -6.27836866866754 2.1192470875139713 0.0 0.0 0.0 4.692625137109884 -0.338234084080946 6.083608003131831 39.9922962366899 8.247468884296396 22.300938758616844 44.83900873484973 -3.9195047820109776 -13.744981019187183 0.0 0.0 0.0 1.626922468877776 -0.10355692519650912 4.749546475500945 -34.024700442567244 3.663321555731122 -32.12875524082011 -58.7000110716254 -8.013995020022882 17.39031164842439 0.0 0.0 0.0
